<?xml version="1.0" standalone="no"?>
<!DOCTYPE svg PUBLIC "-//W3C//DTD SVG 20010904//EN"
 "http://www.w3.org/TR/2001/REC-SVG-20010904/DTD/svg10.dtd">
<svg version="1.0" xmlns="http://www.w3.org/2000/svg"
 width="512.000000pt" height="512.000000pt" viewBox="0 0 512.000000 512.000000"
 preserveAspectRatio="xMidYMid meet">
<metadata>
Created by potrace 1.11, written by Peter Selinger 2001-2013
</metadata>
<g transform="translate(0.000000,512.000000) scale(0.100000,-0.100000)"
fill="#000000" stroke="none">
<path d="M88 5100 c-20 -11 -47 -34 -60 -52 l-23 -33 0 -2455 c0 -2387 1
-2456 19 -2483 10 -15 33 -38 50 -50 l31 -22 2443 -3 c2723 -2 2483 -9 2540
66 l27 35 3 2445 c2 2724 9 2483 -66 2540 l-35 27 -2446 2 c-2405 2 -2447 2
-2483 -17z"/>
</g>
</svg>
