<?xml version="1.0" encoding="utf-8"?>
<!-- Generator: Adobe Illustrator 16.0.0, SVG Export Plug-In . SVG Version: 6.00 Build 0)  -->
<!DOCTYPE svg PUBLIC "-//W3C//DTD SVG 1.1//EN" "http://www.w3.org/Graphics/SVG/1.1/DTD/svg11.dtd">
<svg version="1.1" id="Asteroids" xmlns="http://www.w3.org/2000/svg" xmlns:xlink="http://www.w3.org/1999/xlink" x="0px" y="0px"
	 width="1000px" height="250px" viewBox="0 0 1000 250" enable-background="new 0 0 1000 250" xml:space="preserve">
<g>
	<path fill-rule="evenodd" clip-rule="evenodd" fill="#5F5553" d="M766.865,193.952c1.838,0.764,3.631,1.638,5.441,2.468
		c0.689,0.315,1.349,0.739,2.069,0.93c3.091,0.813,6.247,1.406,9.292,2.358c9.894,3.092-6.315,22.619-12.209,18.465
		c-1.424-1.004-2.448-2.57-3.654-3.875c-0.991,0.088-2.233,0.204-3.476,0.306c-0.311,0.025-0.764-0.123-0.918,0.034
		c-2.366,2.42-4.251,0.14-6.212-0.68c-1.639-0.685-3.071-1.965-4.747-2.431c-2.188-0.608-2.429-2.274-2.771-3.92
		c-0.299-1.433-0.493-2.934-0.4-4.383c0.073-1.16,0.339-2.553,1.053-3.382c2.153-2.5,3.768-5.56,6.951-7.078
		C757.812,192.514,766.039,193.608,766.865,193.952z"/>
	<path fill-rule="evenodd" clip-rule="evenodd" fill="#6C5E5A" d="M895.785,200.808c0.457-3.812,0.792-7.645,1.443-11.424
		c0.191-1.106,1.05-2.45,2.002-3.005c2.477-1.443,5.132-2.613,7.797-3.692c2.156-0.876,4.132-0.019,6.022,1.111
		c2.357,1.406,4.756,2.748,7.158,4.078c2.786,1.541,5.303,6.641,4.376,9.749c-1.291,4.328-2.773,8.619-4.526,12.778
		c-0.526,1.249-2.077,2.402-3.419,2.9c-2.407,0.893-4.988,1.587-7.539,1.759c-3.513,0.237-6.258-1.673-8.503-4.269
		c-0.301-0.349-0.401-0.945-0.756-1.161C896.462,207.592,895.79,204.433,895.785,200.808z"/>
	<path fill-rule="evenodd" clip-rule="evenodd" fill="#50433F" d="M801.275,103.924c0.617-3.621,0.604-7.512,2.002-10.803
		c2.16-5.092,8.79-10.331,15.529-6.052c1.843,1.169,3.851,2.102,5.846,3.006c2.928,1.326,5.746,6.75,4.983,9.892
		c-0.426,1.755-0.951,3.486-1.417,5.231c-1.012,3.793-3.041,6.615-6.912,8.033c-1.199,0.44-2.283,1.53-3.115,2.567
		c-1.581,1.97-3.276,2.496-5.556,1.331c-1.608-0.82-3.166-1.744-4.796-2.517C803.325,112.477,800.636,109.306,801.275,103.924z"/>
	<path fill-rule="evenodd" clip-rule="evenodd" fill="#5F5553" d="M56.235,111.067c0.194,0.478-11.093,3.65-9.36,0.675
		c0.296-0.511,0.318-1.568-0.016-1.99c-1.588-2.008-3.212-3.769-6.153-4.179c-2.759-0.383-3.253-3.436-4.421-5.539
		c-0.404-0.728-0.42-1.663-0.658-2.492c-1.012-3.548,0.579-7.128,3.935-8.646c1.414-0.639,2.977-1.713,4.334-1.535
		c1.953,0.255,3.75,1.561,5.677,2.232c0.818,0.286,1.803,0.067,2.708,0.14c2.231,0.181,4.606-0.021,6.66,0.691
		c3.609,1.252,5.182,4.208,4.562,7.961c-0.458,2.767-0.862,5.694-2.116,8.125C60.46,108.302,58.202,109.403,56.235,111.067z"/>
	<path fill-rule="evenodd" clip-rule="evenodd" fill="#50433F" d="M676.234,117.465c0.908-1.84,1.709-3.499,2.543-5.141
		c1.014-1.992,6.14-4.653,8.398-4.544c1.776,0.086,3.662-0.448,5.327-0.025c2.77,0.701,5.403,1.944,8.089,2.971
		c0.574,0.221,1.107,0.616,1.695,0.712c2.511,0.408,4.35,1.627,5.385,4.019c0.338,0.783,0.869,1.484,0.733,2.079
		c-0.558,2.051-1.105,4.106-1.686,6.153c-0.102,0.359-0.265,0.89-0.528,0.986c-2.471,0.897-4.918,2.102-7.477,2.449
		c-2.379,0.325-4.91-0.127-7.329-0.524C685.734,125.673,679.055,124.189,676.234,117.465z"/>
	<path fill-rule="evenodd" clip-rule="evenodd" fill="#6C5E5A" d="M913.797,56.398c-2.316,2.771-4.358,5.401-6.608,7.84
		c-1.329,1.439-6.257,1.637-7.994,0.636c-0.809-0.467-1.654-1.098-2.53-1.184c-2.76-0.271-2.551-2.426-2.989-4.242
		c-0.2-0.818-0.4-1.739-0.908-2.362c-1.099-1.345-1.516-4.609-0.188-5.508c3.087-2.092,4.649-5.344,6.827-8.132
		c1.944-2.487,4.451-2.944,7.139-1.426c1.564,0.884,3.15,1.728,4.719,2.605c0.266,0.147,0.688,0.345,0.708,0.553
		c0.321,3.129,2.733,3.275,5.058,4.062c1.518,0.513,2.897,2.15,3.791,3.617c1.14,1.875-1.967,4.639-4.687,4.223
		C915.15,56.931,914.208,56.523,913.797,56.398z"/>
	<path fill-rule="evenodd" clip-rule="evenodd" fill="#5F5553" d="M358.912,46.917c-3.982,0.308-8.249-2.133-10.073-5.608
		c-0.489-0.93-1.697-1.558-1.988-2.505c-0.714-2.327-1.479-4.767-1.439-7.146c0.021-1.274,1.646-2.536,2.581-3.777
		c1.104-1.465,2.443-1.25,4.148-1.08c1.671,0.168,3.439-1.015,5.212-1.366c1.253-0.247,2.764-0.509,3.845-0.041
		c2.408,1.045,5.202,1.764,6.03,4.949c0.251,0.97,1.129,1.898,1.943,2.578c2.652,2.216,2.623,6.359-0.082,8.642
		c-0.931,0.784-1.497,2.113-2.516,2.656c-2.379,1.264-4.933,2.202-7.416,3.271C359.077,47.299,358.994,47.108,358.912,46.917z"/>
	<path fill-rule="evenodd" clip-rule="evenodd" fill="#6C5E5A" d="M952.479,99.556c-3.33-1.612-6.856-3.315-10.378-5.028
		c-0.208-0.101-0.467-0.224-0.562-0.409c-1.646-3.183-3.287-6.369-4.879-9.579c-0.193-0.39-0.262-0.987-0.109-1.38
		c1.101-2.831,2.178-5.68,3.514-8.401c0.225-0.459,1.832-0.707,2.508-0.402c4.348,1.955,8.646,4.033,12.891,6.209
		c1.254,0.643,2.321,1.686,3.393,2.636c0.576,0.514,0.897,1.317,1.478,1.823c1.413,1.235,2.556,2.222,2.359,4.618
		c-0.19,2.314-1.79,2.904-2.978,3.993C957.535,95.632,955.146,97.398,952.479,99.556z"/>
	<path fill-rule="evenodd" clip-rule="evenodd" fill="#5F5553" d="M381.687,139.795c-3.099-0.819-5.728-1.339-8.224-2.229
		c-1.854-0.661-3.907-6.424-3.499-8.799c0.728-4.223,2.641-7.871,5.38-11.086c1.859-2.182,4.163-3.68,7.485-1.985
		c2.137,1.092,4.93,1.363,6.091,3.964c0.281,0.632,0.312,1.372,0.51,2.047c0.294,1.009,0.438,2.135,0.993,2.982
		c1.652,2.522,1.415,4.938-0.222,7.256c-1.356,1.921-2.737,3.879-4.421,5.49C384.613,138.555,382.911,139.116,381.687,139.795z"/>
	<path fill-rule="evenodd" clip-rule="evenodd" fill="#5F5553" d="M572.396,106.34c-3.098-1.42-6.331-2.901-9.561-4.388
		c-0.356-0.164-0.721-0.336-1.03-0.57c-1.488-1.129-3.397-8.279-2.764-10.01c0.872-2.381,1.648-4.798,2.489-7.188
		c0.15-0.422,0.424-0.801,0.557-1.045c3.476,1.307,6.797,2.632,10.174,3.795c1.789,0.618,3.712,0.853,5.495,1.483
		c0.58,0.204,1.015,1.068,1.329,1.72c0.692,1.432,1.325,2.897,1.875,4.39c0.824,2.235-0.417,3.973-1.775,5.422
		C577.16,102.107,574.88,104.027,572.396,106.34z"/>
	<path fill-rule="evenodd" clip-rule="evenodd" fill="#5F5553" d="M533.078,220.13c0.268-4.875,3.981-9.329,8.771-9.723
		c1.949-0.161,4.118,0.846,6,1.723c3.335,1.554,6.13,3.767,5.763,7.997c-0.373,4.283-1.386,8.196-5.996,10.116
		c-3.687,1.534-6.969,0.965-9.729-2.074c-0.844-0.931-1.752-1.806-2.669-2.666C533.051,223.461,532.911,223.145,533.078,220.13z"/>
	<path fill-rule="evenodd" clip-rule="evenodd" fill="#50433F" d="M464.411,62.411c5.252,1.581,10.031,2.994,14.784,4.49
		c0.547,0.172,1.184,0.725,1.373,1.247c0.599,1.66,0.835,3.463,1.526,5.074c1.017,2.377-0.479,3.414-2.028,4.517
		c-1.859,1.326-3.846,2.506-5.55,4.006c-1.287,1.136-2.215,1.846-4.018,0.833c-2.224-1.252-4.69-2.07-7.043-3.097
		c-0.426-0.186-0.863-0.408-1.204-0.716c-0.887-0.797-2.041-6.423-1.561-7.569C461.955,68.175,463.244,65.163,464.411,62.411z"/>
	<path fill-rule="evenodd" clip-rule="evenodd" fill="#5F5553" d="M757.66,36.16c-0.708,2.226-1.266,4.863-2.427,7.199
		c-0.474,0.953-2.396,1.923-3.417,1.711c-2.301-0.474-4.544-1.505-6.635-2.632c-2.801-1.512-5.702-2.921-7.341-6.002
		c-1.483-2.791-2.037-5.376,0.187-7.993c0.35-0.413,0.646-0.915,1.083-1.202c5.106-3.356,14.869-0.665,17.464,4.861
		C757.094,33.208,757.229,34.495,757.66,36.16z"/>
	<path fill-rule="evenodd" clip-rule="evenodd" fill="#5F5553" d="M433.369,201.2c-2.121-0.23-3.594-0.393-5.066-0.553
		c-2.435-0.268-5.053-3.331-4.954-5.785c0.025-0.617,0.2-1.313-0.018-1.839c-0.637-1.532-0.57-2.571,0.84-3.849
		c1.562-1.413,2.54-3.457,3.862-5.156c3.112-3.998,7.985-3.711,10.6,0.573c0.24,0.395,0.512,0.931,0.885,1.055
		c1.552,0.521,2.483,1.549,2.187,3.135c-0.371,1.989-0.694,4.149-1.723,5.812c-1.345,2.176-3.318,3.976-5.114,5.847
		C434.39,200.937,433.571,201.104,433.369,201.2z"/>
	<path fill-rule="evenodd" clip-rule="evenodd" fill="#6C5E5A" d="M533.026,139.605c-0.472,3.56-3.388,5.301-5.655,7.516
		c-0.201,0.198-0.658,0.131-0.859,0.327c-3.932,3.828-7.303,0.324-10.699-1.014c-0.825-0.324-0.749-2.499-1.517-3.49
		c-2.769-3.576-0.361-6.327,1.234-9.232c0.378-0.688,0.729-1.469,1.312-1.934c0.579-0.46,1.53-0.946,2.148-0.781
		c3.078,0.823,6.098,1.858,9.14,2.815C529.478,134.236,533.116,138.542,533.026,139.605z"/>
	<path fill-rule="evenodd" clip-rule="evenodd" fill="#5F5553" d="M701.826,167.672c0.412,3.42-1.993,5.693-4.534,7.291
		c-1.409,0.885-3.878,0.532-5.733,0.125c-1.695-0.37-3.23-1.528-4.789-2.423c-0.479-0.273-0.885-0.771-1.18-1.254
		c-0.51-0.834-1.124-1.694-1.302-2.619c-0.242-1.268-0.572-2.834-0.054-3.864c0.99-1.969,2.59-3.625,3.871-5.457
		c1.312-1.877,3.1-2.021,5.01-1.363c1.992,0.686,3.927,1.541,5.865,2.372C700.886,161.295,702.062,164.216,701.826,167.672z"/>
	<path fill-rule="evenodd" clip-rule="evenodd" fill="#6C5E5A" d="M431.402,99.047c-1.642-0.098-3.307-0.056-4.919-0.332
		c-1.721-0.295-2.654-1.217-2.753-3.283c-0.142-2.942,0.007-5.614,2.292-7.754c0.453-0.425,0.856-1.05,1.394-1.208
		c2.324-0.688,4.673-1.318,7.05-1.786c0.76-0.148,1.668,0.174,2.441,0.459c0.723,0.268,1.349,0.79,2.033,1.169
		c1.137,0.632,2.956,0.993,3.293,1.909c0.734,1.985,0.838,4.245,0.909,6.404c0.017,0.521-1.005,1.304-1.702,1.58
		c-2.095,0.833-4.256,1.508-6.41,2.185c-1.167,0.366-2.371,0.612-3.557,0.911C431.448,99.217,431.425,99.134,431.402,99.047z"/>
	<path fill-rule="evenodd" clip-rule="evenodd" fill="#50433F" d="M757.876,107.553c-1.112,3.204-1.872,6.188-3.223,8.875
		c-0.498,0.99-2.335,1.512-3.661,1.828c-1.575,0.377-2.496-0.524-3.041-2.144c-1.943-5.764-3.682-11.461-1.24-17.573
		c0.722-1.806,2.016-2.726,3.588-2.953c1.677-0.244,3.186,0.542,3.873,2.387C755.366,101.173,756.633,104.348,757.876,107.553z"/>
	<path fill-rule="evenodd" clip-rule="evenodd" fill="#5F5553" d="M680.03,201.85c-2.544,0.26-4.518-1.074-5.645-3.443
		c-0.99-2.08-3.311-3.996-1.786-6.631c0.681-1.174,1.881-2.445,3.104-2.819c2.602-0.795,5.11-2.487,8.138-1.195
		c2.14,0.912,3.449,2.143,3.841,4.53C688.376,196.512,684.271,201.939,680.03,201.85z"/>
	<path fill-rule="evenodd" clip-rule="evenodd" fill="#5F5553" d="M688.053,63.784c-2.734-1.396-5.482-2.767-8.182-4.224
		c-0.314-0.17-0.449-0.809-0.529-1.255c-0.33-1.834,2.627-8.24,4.365-8.758c1.532-0.454,3.38-0.598,4.902-0.187
		c3.641,0.983,5.303,4.335,7.441,7.054c0.24,0.308,0.334,1.119,0.125,1.327c-1.529,1.537-1.746,4.405-4.715,4.531
		c-1.039,0.043-2.056,0.601-3.082,0.923C688.271,63.393,688.161,63.588,688.053,63.784z"/>
	<path fill-rule="evenodd" clip-rule="evenodd" fill="#50433F" d="M936.889,119.768c0.879-1.939,1.618-4.13,2.81-6.039
		c1.074-1.722,3.017-2.004,4.8-1.148c1.395,0.669,2.707,1.629,3.847,2.686c2.816,2.611,1.604,7.986-2.187,10.09
		c-3.133,1.737-5.906,1.602-7.627-0.772C937.688,123.421,937.534,121.758,936.889,119.768z"/>
	<path fill-rule="evenodd" clip-rule="evenodd" fill="#5F5553" d="M660.443,92.962c0.316,0.141,1.312,0.33,1.949,0.912
		c3.525,3.211,3.313,10.129-0.57,12.94c-0.938,0.679-3.005,0.726-4.051,0.15c-3.198-1.762-4.061-5.13-4.252-8.44
		C653.365,95.88,657.052,92.932,660.443,92.962z"/>
	<path fill-rule="evenodd" clip-rule="evenodd" fill="#6C5E5A" d="M574.86,82.622c-3.42-0.047-6.411-2.239-6.575-4.209
		c-0.317-3.811,1.826-7.114,4.898-7.548c0.152-0.021,0.353-0.087,0.453-0.018c2.033,1.394,4.255,2.601,5.991,4.302
		c0.829,0.81,1.006,2.577,0.95,3.89c-0.034,0.826-0.874,1.964-1.652,2.339C577.421,82.101,575.705,82.38,574.86,82.622z"/>
	<path fill-rule="evenodd" clip-rule="evenodd" fill="#5F5553" d="M880.344,194.357c-2.739-0.024-5.249-2.272-5.264-4.713
		c-0.018-2.751,3.696-5.995,6.826-5.961c1.718,0.019,4.164,2.811,4.18,4.768C886.117,192.58,884.354,194.395,880.344,194.357z"/>
	<path fill-rule="evenodd" clip-rule="evenodd" fill="#50433F" d="M874.322,169.354c-1.479-0.688-2.977-1.328-4.412-2.086
		c-0.344-0.182-0.634-0.726-0.694-1.141c-0.559-3.827,3.755-8.082,7.199-6.677c1.874,0.762,3.437,2.828,4.525,4.67
		c0.342,0.579-1.069,2.654-2.122,3.474C877.655,168.497,875.982,168.744,874.322,169.354z"/>
	<path fill-rule="evenodd" clip-rule="evenodd" fill="#5F5553" d="M927.611,78.483c-0.021,2.536-0.986,4.594-3.132,5.989
		c-1.433,0.934-2.915,0.907-3.292-0.985c-0.445-2.233-0.629-4.571-0.523-6.845c0.068-1.481,1.051-3.339,2.781-2.733
		c1.567,0.553,2.768,2.197,4.064,3.428C927.718,77.536,927.586,78.091,927.611,78.483z"/>
	<path fill-rule="evenodd" clip-rule="evenodd" fill="#50433F" d="M521.902,227.001c1.522,0.277,3.13,0.344,4.527,0.921
		c0.637,0.263,1.159,1.513,1.208,2.346c0.113,1.891-2.935,4.188-5.215,4.14c-2.178-0.049-4.029-1.637-4.007-3.439
		C518.445,228.607,519.677,227.319,521.902,227.001z"/>
	<path fill-rule="evenodd" clip-rule="evenodd" fill="#6C5E5A" d="M604.345,127.15c2.222,1.523,6.213-0.431,6.424,3.103
		c0.101,1.693-2.421,3.813-4.179,5.205c-0.63,0.502-3.034-0.144-3.712-0.994C600.803,131.853,603.264,129.791,604.345,127.15z"/>
	<path fill-rule="evenodd" clip-rule="evenodd" fill="#6C5E5A" d="M972.297,93.336c0.283-1.478,0.162-3.383,2.594-3.35
		c1.685,0.025,3.988,1.818,3.967,3.061c-0.037,2.147-1.559,3.515-3.893,3.496C973.178,96.528,972.221,95.42,972.297,93.336z"/>
	<path fill-rule="evenodd" clip-rule="evenodd" fill="#5F5553" d="M668.614,169.388c-1.188,0.832-2.278,2.05-3.595,2.397
		c-1.696,0.445-2.883-1.268-2.623-2.496c0.244-1.136,1.746-2.533,2.91-2.774c0.919-0.192,2.167,1.194,3.269,1.88
		C668.589,168.726,668.603,169.058,668.614,169.388z"/>
	<path fill-rule="evenodd" clip-rule="evenodd" fill="#50433F" d="M462.964,157.901c2.767-0.04,3.471,1.342,3.537,3.13
		c0.018,0.459-0.326,1.154-0.699,1.331c-0.298,0.141-1.141-0.215-1.31-0.562C463.884,160.549,463.458,159.209,462.964,157.901z"/>
	<path fill-rule="evenodd" clip-rule="evenodd" fill="#5F5553" d="M965.648,81.013c-0.512-0.804-1.092-1.312-1.018-1.69
		c0.107-0.539,0.693-0.983,1.076-1.47c0.464,0.437,1.255,0.84,1.297,1.313C967.045,79.625,966.319,80.154,965.648,81.013z"/>
	<path fill-rule="evenodd" clip-rule="evenodd" fill="#50433F" d="M514.702,150.198c-1.189,0.83-2.278,2.048-3.597,2.396
		c-1.695,0.446-2.883-1.266-2.621-2.495c0.242-1.136,1.746-2.531,2.908-2.775c0.921-0.189,2.168,1.195,3.271,1.883
		C514.676,149.536,514.689,149.867,514.702,150.198z"/>
	<path fill-rule="evenodd" clip-rule="evenodd" fill="#6C5E5A" d="M419.762,173.152c-1.19,0.832-2.278,2.05-3.597,2.396
		c-1.695,0.447-2.882-1.265-2.621-2.495c0.242-1.136,1.746-2.532,2.908-2.773c0.92-0.191,2.168,1.194,3.27,1.88
		C419.735,172.491,419.748,172.822,419.762,173.152z"/>
	<path fill-rule="evenodd" clip-rule="evenodd" fill="#50433F" d="M391.209,145.091c2.222,1.522,6.213-0.431,6.424,3.103
		c0.102,1.693-2.42,3.812-4.178,5.205c-0.632,0.501-3.035-0.144-3.712-0.996C387.667,149.792,390.128,147.73,391.209,145.091z"/>
	<path fill-rule="evenodd" clip-rule="evenodd" fill="#50433F" d="M687.764,217.219c0.285-1.478,0.162-3.384,2.595-3.35
		c1.685,0.024,3.987,1.819,3.966,3.06c-0.037,2.149-1.559,3.516-3.892,3.496C688.645,220.41,687.689,219.303,687.764,217.219z"/>
</g>
<path fill-rule="evenodd" clip-rule="evenodd" fill="#50433F" d="M188.343,212.062c-2.124-2.996-4.884-5.738-6.223-9.055
	c-2.073-5.127-1.09-13.52,6.702-15.26c2.129-0.477,4.208-1.236,6.259-2.008c3.008-1.133,8.836,0.71,10.518,3.471
	c0.94,1.542,1.793,3.138,2.697,4.701c1.967,3.397,2.527,6.828,0.793,10.568c-0.537,1.159-0.533,2.696-0.388,4.018
	c0.275,2.511-0.552,4.082-2.987,4.869c-1.718,0.559-3.472,1.006-5.171,1.612C195.84,216.661,191.696,216.32,188.343,212.062z"/>
<path fill-rule="evenodd" clip-rule="evenodd" fill="#6C5E5A" d="M129.874,150.82c0.322,3.598,0.737,6.9,0.871,10.217
	c0.078,1.957-3.267,5.581-5.203,6.102c-0.902,0.242-1.946,0.394-2.626,0.952c-2.144,1.76-3.519,0.089-5.114-0.886
	c-0.72-0.438-1.513-0.947-2.312-1.028c-1.728-0.174-4.331-2.188-4.027-3.763c0.704-3.661-0.491-7.065-0.922-10.577
	c-0.384-3.134,1.065-5.229,4.04-6.056c1.731-0.481,3.449-1.006,5.179-1.494c0.292-0.084,0.73-0.242,0.892-0.109
	c2.439,1.984,4.249,0.383,6.449-0.704c1.436-0.711,3.569-0.528,5.238-0.123c2.132,0.521,1.889,4.671-0.328,6.3
	C131.207,150.239,130.253,150.617,129.874,150.82z"/>
<path fill-rule="evenodd" clip-rule="evenodd" fill="#5F5553" d="M62.146,218.546c-2.771,1.611-4.997,3.103-7.392,4.238
	c-1.778,0.844-7.305-1.779-8.696-3.748c-2.471-3.5-3.699-7.433-4.034-11.643c-0.228-2.858,0.341-5.546,3.889-6.697
	c2.283-0.739,4.45-2.521,7.109-1.504c0.646,0.248,1.191,0.749,1.808,1.087c0.922,0.505,1.819,1.199,2.812,1.406
	c2.952,0.615,4.492,2.491,4.974,5.288c0.399,2.317,0.808,4.678,0.756,7.008C63.337,215.6,62.531,217.2,62.146,218.546z"/>
<path fill-rule="evenodd" clip-rule="evenodd" fill="#6C5E5A" d="M88.463,150.098c2.183,2.85,1.353,6.143,1.315,9.312
	c-0.002,0.283-0.373,0.559-0.376,0.839c-0.073,5.487-4.935,5.394-8.282,6.849c-0.813,0.354-2.297-1.237-3.541-1.396
	c-4.486-0.571-4.729-4.218-5.655-7.401c-0.219-0.753-0.523-1.554-0.439-2.295c0.084-0.734,0.413-1.751,0.967-2.072
	c2.759-1.594,5.626-2.997,8.454-4.471C82.157,148.811,87.775,149.281,88.463,150.098z"/>
<path fill-rule="evenodd" clip-rule="evenodd" fill="#5F5553" d="M199.335,41.583c2.71,2.127,2.617,5.435,1.95,8.362
	c-0.371,1.622-2.366,3.118-3.966,4.143c-1.46,0.937-3.365,1.203-5.1,1.673c-0.532,0.146-1.171,0.08-1.721-0.052
	c-0.95-0.229-1.993-0.403-2.772-0.932c-1.068-0.725-2.409-1.599-2.771-2.694c-0.692-2.092-0.732-4.395-1.122-6.596
	c-0.399-2.255,0.763-3.621,2.579-4.506c1.894-0.924,3.866-1.687,5.825-2.47C194.162,37.739,197.059,38.973,199.335,41.583z"/>
<path fill-rule="evenodd" clip-rule="evenodd" fill="#5F5553" d="M208.091,81.163c-1.615,1.983-3.954,2.435-6.426,1.557
	c-2.171-0.771-5.167-0.485-5.952-3.426c-0.349-1.311-0.399-3.059,0.202-4.189c1.278-2.401,1.855-5.372,4.909-6.599
	c2.158-0.868,3.954-0.924,5.919,0.487C210.218,71.487,211.153,78.228,208.091,81.163z"/>
<path fill-rule="evenodd" clip-rule="evenodd" fill="#6C5E5A" d="M74.753,54.86c2.648-0.494,4.088-4.698,6.736-2.349
	c1.269,1.126,0.985,4.408,0.726,6.635c-0.091,0.8-2.247,2.044-3.328,1.922C75.573,60.69,75.855,57.492,74.753,54.86z"/>
<path fill-rule="evenodd" clip-rule="evenodd" fill="#5F5553" d="M177.064,66.281c-0.252,1.429-0.162,3.06-0.847,4.237
	c-0.884,1.515-2.935,1.142-3.62,0.09c-0.63-0.976-0.557-3.026,0.096-4.02c0.514-0.786,2.376-0.688,3.64-0.982
	C176.578,65.831,176.823,66.056,177.064,66.281z"/>
<path fill-rule="evenodd" clip-rule="evenodd" fill="#50433F" d="M82.996,170.545c-0.254,1.428-0.163,3.059-0.849,4.236
	c-0.883,1.515-2.934,1.144-3.618,0.09c-0.632-0.975-0.555-3.025,0.094-4.02c0.517-0.785,2.378-0.688,3.644-0.98
	C82.509,170.095,82.753,170.319,82.996,170.545z"/>
<path fill-rule="evenodd" clip-rule="evenodd" fill="#50433F" d="M72.624,215.558c2.647-0.495,4.088-4.698,6.736-2.349
	c1.27,1.125,0.985,4.407,0.727,6.635c-0.093,0.801-2.248,2.044-3.33,1.92C73.443,221.387,73.726,218.188,72.624,215.558z"/>
<path fill-rule="evenodd" clip-rule="evenodd" fill="#50433F" d="M284.234,184.465c0.908-1.84,1.709-3.499,2.543-5.141
	c1.014-1.992,6.14-4.653,8.398-4.544c1.776,0.086,3.662-0.448,5.327-0.025c2.77,0.701,5.403,1.944,8.089,2.971
	c0.574,0.221,1.107,0.616,1.695,0.712c2.511,0.408,4.35,1.627,5.385,4.019c0.338,0.783,0.869,1.484,0.733,2.079
	c-0.558,2.051-1.105,4.106-1.686,6.153c-0.102,0.359-0.265,0.89-0.528,0.986c-2.471,0.897-4.918,2.102-7.477,2.449
	c-2.379,0.325-4.91-0.127-7.329-0.524C293.734,192.673,287.055,191.189,284.234,184.465z"/>
<path fill-rule="evenodd" clip-rule="evenodd" fill="#5F5553" d="M303.66,29.16c-0.708,2.226-1.266,4.863-2.427,7.199
	c-0.474,0.953-2.396,1.923-3.417,1.711c-2.301-0.474-4.544-1.505-6.635-2.632c-2.801-1.512-5.702-2.921-7.341-6.002
	c-1.483-2.791-2.037-5.376,0.187-7.993c0.35-0.413,0.646-0.915,1.083-1.202c5.106-3.356,14.869-0.665,17.464,4.861
	C303.094,26.208,303.229,27.495,303.66,29.16z"/>
<path fill-rule="evenodd" clip-rule="evenodd" fill="#50433F" d="M365.876,174.553c-1.112,3.204-1.872,6.188-3.223,8.875
	c-0.498,0.99-2.335,1.512-3.661,1.828c-1.575,0.377-2.496-0.524-3.041-2.144c-1.943-5.764-3.682-11.461-1.24-17.573
	c0.722-1.806,2.016-2.726,3.588-2.953c1.677-0.244,3.186,0.542,3.873,2.387C363.366,168.173,364.633,171.348,365.876,174.553z"/>
<path fill-rule="evenodd" clip-rule="evenodd" fill="#5F5553" d="M296.053,130.784c-2.734-1.396-5.482-2.767-8.182-4.224
	c-0.314-0.17-0.449-0.809-0.529-1.255c-0.33-1.834,2.627-8.24,4.365-8.758c1.532-0.454,3.38-0.598,4.902-0.187
	c3.641,0.983,5.303,4.335,7.441,7.054c0.24,0.308,0.334,1.119,0.125,1.327c-1.529,1.537-1.746,4.405-4.715,4.531
	c-1.039,0.043-2.056,0.601-3.082,0.923C296.271,130.393,296.161,130.588,296.053,130.784z"/>
<path fill-rule="evenodd" clip-rule="evenodd" fill="#5F5553" d="M221.443,128.962c0.316,0.141,1.312,0.33,1.949,0.912
	c3.525,3.211,3.313,10.129-0.57,12.94c-0.938,0.679-3.005,0.726-4.051,0.15c-3.198-1.762-4.061-5.13-4.252-8.44
	C214.365,131.88,218.052,128.932,221.443,128.962z"/>
<path fill-rule="evenodd" clip-rule="evenodd" fill="#5F5553" d="M273.344,218.357c-2.739-0.024-5.249-2.272-5.264-4.713
	c-0.018-2.751,3.696-5.995,6.826-5.961c1.718,0.019,4.164,2.811,4.18,4.768C279.117,216.58,277.354,218.395,273.344,218.357z"/>
<path fill-rule="evenodd" clip-rule="evenodd" fill="#50433F" d="M267.322,193.354c-1.479-0.688-2.977-1.328-4.412-2.086
	c-0.344-0.182-0.634-0.726-0.694-1.141c-0.559-3.827,3.755-8.082,7.199-6.677c1.874,0.762,3.437,2.828,4.525,4.67
	c0.342,0.579-1.069,2.654-2.122,3.474C270.655,192.497,268.982,192.744,267.322,193.354z"/>
</svg>
