<?xml version="1.0" encoding="utf-8"?>
<!-- Generator: Adobe Illustrator 16.0.0, SVG Export Plug-In . SVG Version: 6.00 Build 0)  -->
<!DOCTYPE svg PUBLIC "-//W3C//DTD SVG 1.1//EN" "http://www.w3.org/Graphics/SVG/1.1/DTD/svg11.dtd">
<svg version="1.1" id="Comets" xmlns="http://www.w3.org/2000/svg" xmlns:xlink="http://www.w3.org/1999/xlink" x="0px" y="0px"
	 width="1000px" height="250px" viewBox="0 0 1000 250" enable-background="new 0 0 1000 250" xml:space="preserve">
<g>
	<path fill-rule="evenodd" clip-rule="evenodd" fill="#DFEFEF" d="M29.132,155.178c-1.669-0.695-3.299-1.488-4.943-2.241
		c-0.625-0.287-1.225-0.673-1.88-0.846c-2.808-0.739-5.675-1.276-8.442-2.142c-8.988-2.81,5.738-20.55,11.092-16.774
		c1.293,0.911,2.225,2.334,3.321,3.52c0.899-0.08,2.028-0.186,3.157-0.278c0.282-0.023,0.693,0.113,0.833-0.031
		c2.15-2.198,3.862-0.127,5.645,0.618c1.488,0.621,2.789,1.785,4.312,2.208c1.987,0.553,2.206,2.066,2.517,3.562
		c0.271,1.301,0.448,2.665,0.364,3.981c-0.066,1.055-0.309,2.319-0.958,3.073c-1.956,2.27-3.423,5.05-6.314,6.429
		C37.356,156.484,29.882,155.489,29.132,155.178z"/>
	<path fill-rule="evenodd" clip-rule="evenodd" fill="#DFEFEF" d="M76.673,51.983c-0.414,3.463-0.719,6.944-1.311,10.377
		c-0.173,1.006-0.954,2.228-1.817,2.73c-2.25,1.312-4.663,2.374-7.084,3.355c-1.958,0.794-3.753,0.016-5.472-1.01
		c-2.142-1.278-4.32-2.497-6.502-3.705c-2.531-1.401-4.818-6.034-3.976-8.857c1.172-3.932,2.521-7.83,4.112-11.609
		c0.479-1.135,1.888-2.183,3.106-2.635c2.187-0.811,4.533-1.44,6.85-1.597c3.191-0.217,5.686,1.519,7.725,3.877
		c0.273,0.316,0.365,0.859,0.687,1.055C76.059,45.818,76.67,48.689,76.673,51.983z"/>
	<path fill-rule="evenodd" clip-rule="evenodd" fill="#D5E0E0" d="M141.412,221.521c-0.562,3.29-0.55,6.824-1.819,9.814
		c-1.962,4.626-7.985,9.386-14.107,5.499c-1.674-1.063-3.499-1.91-5.311-2.731c-2.661-1.205-5.221-6.133-4.528-8.986
		c0.387-1.595,0.865-3.167,1.288-4.753c0.918-3.444,2.762-6.009,6.28-7.299c1.089-0.399,2.074-1.39,2.83-2.332
		c1.436-1.789,2.976-2.268,5.047-1.209c1.461,0.746,2.876,1.585,4.358,2.286C139.548,213.752,141.992,216.633,141.412,221.521z"/>
	<path fill-rule="evenodd" clip-rule="evenodd" fill="#CCE2E0" d="M236.698,21.452c-0.176-0.434,10.079-3.316,8.504-0.612
		c-0.27,0.463-0.29,1.425,0.014,1.808c1.443,1.824,2.918,3.424,5.59,3.796c2.506,0.35,2.955,3.121,4.017,5.032
		c0.367,0.661,0.382,1.512,0.598,2.265c0.918,3.223-0.526,6.476-3.574,7.854c-1.285,0.581-2.705,1.557-3.938,1.396
		c-1.774-0.231-3.406-1.419-5.157-2.029c-0.744-0.26-1.638-0.06-2.46-0.126c-2.027-0.164-4.185,0.02-6.05-0.628
		c-3.278-1.138-4.708-3.823-4.144-7.232c0.416-2.513,0.783-5.174,1.922-7.382C232.859,23.965,234.912,22.963,236.698,21.452z"/>
	<path fill-rule="evenodd" clip-rule="evenodd" fill="#DFEFEF" d="M198.932,76.47c-0.825,1.671-1.553,3.179-2.31,4.67
		c-0.92,1.81-5.578,4.228-7.629,4.128c-1.614-0.079-3.328,0.408-4.84,0.024c-2.517-0.639-4.908-1.768-7.349-2.701
		c-0.52-0.198-1.005-0.559-1.539-0.646c-2.282-0.371-3.953-1.479-4.893-3.65c-0.307-0.712-0.79-1.349-0.666-1.889
		c0.507-1.864,1.004-3.732,1.531-5.592c0.092-0.326,0.24-0.808,0.479-0.895c2.246-0.815,4.468-1.91,6.793-2.227
		c2.16-0.294,4.461,0.116,6.657,0.478C190.302,69.013,196.371,70.36,198.932,76.47z"/>
	<path fill-rule="evenodd" clip-rule="evenodd" fill="#DFEFEF" d="M185.453,202.922c2.104-2.519,3.96-4.907,6.004-7.123
		c1.207-1.308,5.684-1.486,7.261-0.577c0.736,0.425,1.504,0.996,2.3,1.075c2.506,0.246,2.316,2.204,2.716,3.853
		c0.181,0.745,0.363,1.582,0.825,2.147c0.998,1.222,1.376,4.188,0.17,5.004c-2.804,1.898-4.224,4.854-6.202,7.387
		c-1.766,2.261-4.044,2.675-6.485,1.297c-1.421-0.803-2.861-1.571-4.287-2.366c-0.241-0.136-0.624-0.314-0.643-0.504
		c-0.292-2.843-2.483-2.976-4.594-3.69c-1.379-0.466-2.632-1.953-3.444-3.287c-1.036-1.702,1.786-4.213,4.256-3.835
		C184.223,202.438,185.08,202.809,185.453,202.922z"/>
	<path fill-rule="evenodd" clip-rule="evenodd" fill="#DFEFEF" d="M75.444,115.869c3.617-0.279,7.494,1.938,9.151,5.094
		c0.444,0.846,1.542,1.416,1.806,2.277c0.649,2.113,1.343,4.33,1.307,6.492c-0.019,1.158-1.496,2.303-2.345,3.432
		c-1.002,1.33-2.219,1.135-3.768,0.979c-1.518-0.15-3.125,0.924-4.736,1.242c-1.138,0.227-2.511,0.463-3.493,0.037
		c-2.188-0.949-4.726-1.602-5.478-4.496c-0.229-0.881-1.026-1.725-1.766-2.342c-2.409-2.014-2.383-5.777,0.075-7.85
		c0.845-0.712,1.359-1.92,2.285-2.413c2.162-1.148,4.481-2.001,6.738-2.974C75.294,115.52,75.369,115.694,75.444,115.869z"/>
	<path fill-rule="evenodd" clip-rule="evenodd" fill="#CCE2E0" d="M318.379,211.863c3.025,1.465,6.229,3.013,9.428,4.568
		c0.188,0.092,0.423,0.203,0.51,0.371c1.496,2.892,2.986,5.786,4.433,8.703c0.175,0.354,0.238,0.896,0.1,1.254
		c-0.999,2.571-1.979,5.16-3.191,7.632c-0.205,0.417-1.664,0.643-2.279,0.366c-3.95-1.777-7.855-3.664-11.71-5.641
		c-1.139-0.584-2.109-1.531-3.082-2.396c-0.524-0.466-0.816-1.194-1.343-1.655c-1.283-1.123-2.321-2.019-2.143-4.195
		c0.173-2.103,1.625-2.639,2.705-3.628C313.786,215.43,315.956,213.824,318.379,211.863z"/>
	<path fill-rule="evenodd" clip-rule="evenodd" fill="#DFEFEF" d="M341.381,98.941c2.815,0.743,5.203,1.216,7.471,2.024
		c1.684,0.601,3.55,5.837,3.179,7.994c-0.662,3.835-2.399,7.151-4.888,10.071c-1.689,1.981-3.782,3.343-6.8,1.803
		c-1.942-0.989-4.479-1.238-5.533-3.601c-0.256-0.574-0.285-1.245-0.464-1.859c-0.268-0.916-0.398-1.938-0.902-2.709
		c-1.501-2.293-1.286-4.487,0.201-6.593c1.232-1.744,2.486-3.522,4.017-4.987C338.724,100.068,340.27,99.558,341.381,98.941z"/>
	<path fill-rule="evenodd" clip-rule="evenodd" fill="#CCE2E0" d="M248.752,129.264c2.813,1.29,5.752,2.635,8.687,3.986
		c0.323,0.148,0.652,0.305,0.933,0.518c1.353,1.026,3.087,7.521,2.512,9.094c-0.792,2.163-1.497,4.357-2.262,6.531
		c-0.136,0.383-0.384,0.726-0.505,0.949c-3.156-1.188-6.174-2.391-9.242-3.448c-1.626-0.561-3.373-0.774-4.994-1.348
		c-0.526-0.187-0.921-0.971-1.207-1.562c-0.629-1.3-1.204-2.633-1.703-3.987c-0.749-2.031,0.378-3.609,1.613-4.925
		C244.423,133.109,246.496,131.365,248.752,129.264z"/>
	<path fill-rule="evenodd" clip-rule="evenodd" fill="#DFEFEF" d="M313.544,152.167c-0.244,4.428-3.617,8.475-7.969,8.832
		c-1.771,0.146-3.741-0.769-5.452-1.565c-3.029-1.41-5.567-3.422-5.234-7.265c0.338-3.891,1.258-7.446,5.447-9.189
		c3.349-1.395,6.331-0.878,8.839,1.884c0.767,0.845,1.593,1.64,2.425,2.422C313.569,149.14,313.695,149.428,313.544,152.167z"/>
	<path fill-rule="evenodd" clip-rule="evenodd" fill="#D5E0E0" d="M364.344,73.852c-4.771-1.437-9.112-2.72-13.431-4.079
		c-0.497-0.156-1.076-0.658-1.248-1.134c-0.544-1.508-0.759-3.145-1.387-4.609c-0.923-2.159,0.436-3.1,1.843-4.103
		c1.689-1.204,3.494-2.275,5.042-3.639c1.169-1.032,2.013-1.678,3.65-0.757c2.021,1.137,4.261,1.881,6.398,2.813
		c0.387,0.169,0.785,0.371,1.094,0.649c0.807,0.724,1.854,5.836,1.419,6.877C366.575,68.615,365.405,71.352,364.344,73.852z"/>
	<path fill-rule="evenodd" clip-rule="evenodd" fill="#DFEFEF" d="M451.761,229.483c0.643-2.022,1.149-4.418,2.205-6.541
		c0.429-0.864,2.176-1.745,3.104-1.554c2.089,0.432,4.127,1.367,6.027,2.392c2.545,1.373,5.18,2.652,6.669,5.452
		c1.348,2.535,1.85,4.886-0.169,7.262c-0.318,0.375-0.588,0.831-0.984,1.092c-4.639,3.051-13.508,0.605-15.866-4.415
		C452.275,232.166,452.153,230.996,451.761,229.483z"/>
	<path fill-rule="evenodd" clip-rule="evenodd" fill="#D5E0E0" d="M135.441,81.69c1.926,0.211,3.264,0.357,4.602,0.503
		c2.211,0.243,4.59,3.026,4.5,5.256c-0.022,0.561-0.182,1.193,0.017,1.67c0.579,1.393,0.517,2.336-0.763,3.496
		c-1.419,1.285-2.308,3.142-3.509,4.685c-2.827,3.634-7.254,3.372-9.629-0.521c-0.218-0.358-0.465-0.845-0.804-0.958
		c-1.41-0.472-2.255-1.407-1.987-2.849c0.337-1.807,0.631-3.77,1.565-5.28c1.222-1.975,3.015-3.61,4.646-5.311
		C134.512,81.931,135.257,81.778,135.441,81.69z"/>
	<path fill-rule="evenodd" clip-rule="evenodd" fill="#DFEFEF" d="M211.591,229.988c0.427-3.234,3.076-4.816,5.137-6.829
		c0.183-0.179,0.599-0.118,0.782-0.296c3.57-3.479,6.634-0.294,9.719,0.92c0.75,0.296,0.68,2.271,1.377,3.172
		c2.516,3.249,0.328,5.748-1.122,8.388c-0.342,0.622-0.663,1.334-1.192,1.756c-0.526,0.418-1.391,0.859-1.952,0.71
		c-2.796-0.748-5.54-1.689-8.304-2.558C214.814,234.865,211.509,230.953,211.591,229.988z"/>
	<path fill-rule="evenodd" clip-rule="evenodd" fill="#CCE2E0" d="M42.906,186.49c-0.375-3.106,1.81-5.172,4.119-6.623
		c1.28-0.804,3.522-0.484,5.208-0.114c1.54,0.336,2.935,1.389,4.351,2.2c0.436,0.25,0.804,0.701,1.072,1.14
		c0.463,0.758,1.021,1.54,1.182,2.381c0.22,1.151,0.52,2.574,0.049,3.509c-0.901,1.789-2.354,3.294-3.518,4.958
		c-1.192,1.704-2.815,1.837-4.551,1.238c-1.809-0.623-3.566-1.4-5.328-2.154C43.759,192.283,42.691,189.63,42.906,186.49z"/>
	<path fill-rule="evenodd" clip-rule="evenodd" fill="#CCE2E0" d="M393.853,199.605c1.491,0.09,3.005,0.053,4.469,0.304
		c1.564,0.269,2.412,1.105,2.502,2.982c0.128,2.674-0.006,5.101-2.082,7.045c-0.411,0.386-0.778,0.953-1.266,1.097
		c-2.112,0.625-4.246,1.198-6.405,1.622c-0.69,0.136-1.516-0.157-2.219-0.417c-0.656-0.242-1.224-0.717-1.846-1.062
		c-1.033-0.574-2.685-0.902-2.992-1.733c-0.667-1.805-0.761-3.858-0.826-5.819c-0.016-0.474,0.913-1.183,1.546-1.435
		c1.903-0.758,3.867-1.37,5.824-1.985c1.059-0.333,2.153-0.556,3.231-0.828C393.812,199.453,393.832,199.529,393.853,199.605z"/>
	<path fill-rule="evenodd" clip-rule="evenodd" fill="#DFEFEF" d="M266.095,52.808c1.01-2.911,1.701-5.622,2.929-8.062
		c0.453-0.9,2.121-1.374,3.325-1.661c1.432-0.343,2.268,0.477,2.763,1.947c1.766,5.237,3.344,10.412,1.126,15.964
		c-0.655,1.642-1.831,2.477-3.26,2.684c-1.523,0.223-2.894-0.492-3.519-2.168C268.376,58.603,267.226,55.72,266.095,52.808z"/>
	<path fill-rule="evenodd" clip-rule="evenodd" fill="#D5E0E0" d="M57.373,80.107c2.311-0.235,4.104,0.977,5.128,3.128
		c0.9,1.89,3.008,3.631,1.623,6.025c-0.618,1.065-1.708,2.22-2.821,2.561c-2.363,0.723-4.642,2.259-7.393,1.085
		c-1.944-0.828-3.133-1.946-3.489-4.115C49.791,84.957,53.522,80.026,57.373,80.107z"/>
	<path fill-rule="evenodd" clip-rule="evenodd" fill="#CCE2E0" d="M446.862,202.572c2.484,1.268,4.98,2.512,7.434,3.836
		c0.285,0.154,0.406,0.734,0.479,1.14c0.3,1.666-2.385,7.487-3.965,7.957c-1.392,0.413-3.07,0.542-4.452,0.169
		c-3.308-0.894-4.819-3.938-6.762-6.408c-0.219-0.278-0.303-1.016-0.114-1.205c1.391-1.396,1.586-4.003,4.285-4.117
		c0.944-0.039,1.867-0.545,2.799-0.838C446.665,202.927,446.764,202.749,446.862,202.572z"/>
	<path fill-rule="evenodd" clip-rule="evenodd" fill="#DFEFEF" d="M94.543,144.167c-0.798,1.762-1.47,3.752-2.553,5.486
		c-0.976,1.562-2.74,1.82-4.36,1.043c-1.267-0.607-2.46-1.479-3.495-2.439c-2.558-2.373-1.457-7.256,1.987-9.166
		c2.847-1.578,5.366-1.455,6.928,0.701C93.816,140.849,93.957,142.358,94.543,144.167z"/>
	<path fill-rule="evenodd" clip-rule="evenodd" fill="#CCE2E0" d="M213.278,98.731c-0.288-0.129-1.192-0.301-1.771-0.829
		c-3.202-2.918-3.01-9.202,0.519-11.756c0.851-0.617,2.73-0.659,3.68-0.137c2.906,1.6,3.689,4.66,3.863,7.669
		C219.708,96.08,216.36,98.757,213.278,98.731z"/>
	<path fill-rule="evenodd" clip-rule="evenodd" fill="#D5E0E0" d="M246.514,150.812c3.106,0.041,5.824,2.033,5.973,3.823
		c0.289,3.462-1.659,6.463-4.45,6.856c-0.138,0.02-0.32,0.079-0.412,0.017c-1.847-1.267-3.865-2.363-5.443-3.907
		c-0.753-0.736-0.914-2.344-0.864-3.536c0.031-0.75,0.794-1.783,1.502-2.123C244.187,151.285,245.746,151.03,246.514,150.812z"/>
	<path fill-rule="evenodd" clip-rule="evenodd" fill="#CCE2E0" d="M152.501,93.829c2.488,0.022,4.768,2.064,4.781,4.282
		c0.016,2.499-3.358,5.445-6.202,5.414c-1.56-0.017-3.783-2.553-3.797-4.331C147.255,95.444,148.858,93.794,152.501,93.829z"/>
	<path fill-rule="evenodd" clip-rule="evenodd" fill="#D5E0E0" d="M416.637,193.877c1.343,0.623,2.704,1.206,4.009,1.895
		c0.312,0.165,0.575,0.66,0.63,1.036c0.508,3.477-3.412,7.342-6.541,6.066c-1.703-0.694-3.122-2.57-4.111-4.243
		c-0.311-0.525,0.971-2.411,1.928-3.155C413.61,194.655,415.13,194.431,416.637,193.877z"/>
	<path fill-rule="evenodd" clip-rule="evenodd" fill="#D5E0E0" d="M340.971,231.008c0.018-2.305,0.897-4.173,2.846-5.441
		c1.301-0.849,2.647-0.823,2.99,0.895c0.404,2.029,0.572,4.153,0.477,6.219c-0.062,1.347-0.955,3.033-2.526,2.482
		c-1.425-0.501-2.515-1.995-3.693-3.114C340.874,231.868,340.994,231.362,340.971,231.008z"/>
	<path fill-rule="evenodd" clip-rule="evenodd" fill="#CCE2E0" d="M323.695,145.924c-1.382-0.251-2.843-0.312-4.113-0.837
		c-0.578-0.238-1.053-1.374-1.097-2.13c-0.103-1.718,2.667-3.806,4.738-3.761c1.979,0.043,3.66,1.486,3.64,3.123
		C326.836,144.464,325.719,145.635,323.695,145.924z"/>
	<path fill-rule="evenodd" clip-rule="evenodd" fill="#D5E0E0" d="M146.799,241.303c-2.018-1.383-5.644,0.392-5.835-2.818
		c-0.092-1.538,2.199-3.464,3.795-4.729c0.574-0.455,2.757,0.131,3.372,0.904C150.018,237.032,147.781,238.904,146.799,241.303z"/>
	<path fill-rule="evenodd" clip-rule="evenodd" fill="#D5E0E0" d="M300.375,217.514c-0.258,1.342-0.148,3.074-2.357,3.043
		c-1.53-0.021-3.623-1.652-3.604-2.779c0.034-1.952,1.417-3.194,3.538-3.177C299.575,214.614,300.444,215.621,300.375,217.514z"/>
	<path fill-rule="evenodd" clip-rule="evenodd" fill="#DFEFEF" d="M73.077,184.931c1.081-0.755,2.07-1.861,3.267-2.177
		c1.54-0.404,2.619,1.15,2.381,2.268c-0.22,1.031-1.586,2.301-2.642,2.521c-0.836,0.174-1.97-1.086-2.971-1.709
		C73.101,185.532,73.089,185.231,73.077,184.931z"/>
	<path fill-rule="evenodd" clip-rule="evenodd" fill="#CCE2E0" d="M361.116,81.583c-2.514,0.036-3.154-1.219-3.213-2.843
		c-0.016-0.417,0.296-1.049,0.635-1.209c0.271-0.129,1.037,0.195,1.189,0.51C360.28,79.178,360.667,80.396,361.116,81.583z"/>
	<path fill-rule="evenodd" clip-rule="evenodd" fill="#DFEFEF" d="M306.415,228.709c0.466,0.73,0.993,1.191,0.924,1.535
		c-0.097,0.49-0.629,0.895-0.976,1.336c-0.422-0.396-1.141-0.764-1.179-1.193C305.146,229.97,305.806,229.489,306.415,228.709z"/>
	<path fill-rule="evenodd" clip-rule="evenodd" fill="#CCE2E0" d="M228.237,220.364c1.082-0.755,2.07-1.86,3.268-2.176
		c1.54-0.405,2.619,1.149,2.381,2.266c-0.22,1.032-1.585,2.301-2.642,2.521c-0.836,0.173-1.969-1.086-2.971-1.709
		C228.261,220.966,228.249,220.665,228.237,220.364z"/>
	<path fill-rule="evenodd" clip-rule="evenodd" fill="#DFEFEF" d="M106.469,113.836c1.082-0.755,2.07-1.861,3.267-2.177
		c1.541-0.405,2.619,1.15,2.381,2.267c-0.221,1.032-1.586,2.301-2.642,2.521c-0.836,0.173-1.97-1.086-2.971-1.709
		C106.492,114.438,106.48,114.137,106.469,113.836z"/>
	<path fill-rule="evenodd" clip-rule="evenodd" fill="#CCE2E0" d="M332.73,94.13c-2.018-1.384-5.644,0.392-5.835-2.818
		c-0.092-1.538,2.199-3.464,3.795-4.729c0.573-0.455,2.757,0.131,3.372,0.904C335.949,89.858,333.712,91.731,332.73,94.13z"/>
	<path fill-rule="evenodd" clip-rule="evenodd" fill="#DFEFEF" d="M50.347,66.144c-0.258,1.342-0.147,3.074-2.357,3.043
		c-1.53-0.022-3.624-1.652-3.604-2.779c0.034-1.952,1.416-3.194,3.537-3.177C49.546,63.245,50.416,64.251,50.347,66.144z"/>
</g>
<path fill-rule="evenodd" clip-rule="evenodd" fill="#DFEFEF" d="M546.319,233.68c-1.875-1.885-3.576-3.569-5.242-5.272
	c-2.019-2.069-3.109-8.292-2.012-10.299c0.866-1.578,1.009-3.613,2.237-4.898c2.047-2.137,4.699-3.837,7.109-5.711
	c0.513-0.4,1.229-0.663,1.597-1.146c1.573-2.069,3.857-3.057,7.242-2.637c1.107,0.139,2.197,0.052,2.871,0.52
	c2.287,1.686,4.585,3.364,6.856,5.068c0.398,0.299,0.982,0.75,0.987,1.046c0.051,2.78,0.491,5.712-0.172,8.258
	c-0.615,2.364-2.25,4.427-3.771,6.415C560.473,229.673,555.801,234.946,546.319,233.68z"/>
<path fill-rule="evenodd" clip-rule="evenodd" fill="#CCE2E0" d="M858.834,216.421c-1.001-3.89-2.064-8.003-3.118-12.122
	c-0.062-0.242-0.141-0.543-0.044-0.793c1.693-4.309,3.396-8.617,5.155-12.918c0.213-0.52,0.71-1.166,1.184-1.455
	c3.416-2.08,6.834-4.195,10.324-6.004c0.589-0.305,2.013,0.543,2.238,1.311c1.444,4.927,2.742,9.941,3.908,15.018
	c0.344,1.5,0.183,3.273,0.106,4.957c-0.041,0.908-0.537,1.93-0.571,2.833c-0.08,2.2-0.133,3.968-2.479,6.231
	c-2.266,2.186-3.998,1.684-5.883,1.961C866.203,215.946,862.801,216.084,858.834,216.421z"/>
<path fill-rule="evenodd" clip-rule="evenodd" fill="#D5E0E0" d="M728.854,97.517c4.185-3.908,7.962-7.479,11.829-10.979
	c0.444-0.403,1.396-0.67,2.121-0.545c2.298,0.401,4.616,1.217,6.896,1.507c3.357,0.429,3.994,2.393,4.693,4.445
	c0.838,2.462,1.441,4.958,2.562,7.379c0.851,1.83,1.329,3.088-0.687,4.158c-2.488,1.322-4.548,3.114-6.814,4.684
	c-0.41,0.284-0.871,0.557-1.393,0.693c-1.36,0.359-8.777-1.807-9.983-2.902C734.9,103.068,731.743,100.162,728.854,97.517z"/>
<path fill-rule="evenodd" clip-rule="evenodd" fill="#DFEFEF" d="M703.863,167.433c2.438,1.923,5.446,3.942,7.826,6.347
	c0.971,0.977,1.344,3.295,0.648,4.11c-1.565,1.836-3.789,3.303-6.068,4.573c-3.054,1.702-6.024,3.555-10.517,3.293
	c-4.067-0.238-7.487-1.214-9.759-4.748c-0.358-0.558-0.849-1.117-1.018-1.681c-1.954-6.603,5.52-14.01,13.428-13.224
	C699.987,166.26,701.63,166.873,703.863,167.433z"/>
<path fill-rule="evenodd" clip-rule="evenodd" fill="#D5E0E0" d="M783.041,53.899c-1.189,1.812-2.016,3.067-2.841,4.326
	c-1.367,2.078-6.255,2.724-9.231,1.228c-0.75-0.376-1.532-0.936-2.271-1.034c-2.158-0.295-3.406-0.951-4.379-2.975
	c-1.074-2.241-3.173-4.308-4.699-6.492c-3.596-5.143-1.165-9.444,5.224-9.387c0.588,0.005,1.363,0.063,1.676-0.208
	c1.301-1.125,2.965-1.388,4.791-0.209c2.29,1.479,4.811,3.012,6.42,4.907c2.101,2.477,3.477,5.316,5.015,8.033
	C783.15,52.812,783.008,53.658,783.041,53.899z"/>
<path fill-rule="evenodd" clip-rule="evenodd" fill="#CCE2E0" d="M406.849,85.84c-0.821,1.447-1.481,2.997-2.509,4.316
	c-1.097,1.409-2.63,1.736-5.216,0.646c-3.683-1.557-6.905-3.222-8.567-6.541c-0.329-0.658-0.925-1.386-0.891-1.968
	c0.145-2.525,0.368-5.039,0.809-7.484c0.141-0.781,0.924-1.432,1.606-1.977c0.635-0.508,1.545-0.783,2.305-1.192
	c1.262-0.682,2.482-2.141,3.752-1.927c2.758,0.465,5.583,1.664,8.272,2.834c0.648,0.282,1.171,1.668,1.218,2.465
	c0.133,2.397,0.04,4.764-0.045,7.126c-0.045,1.278-0.256,2.522-0.394,3.781C407.076,85.894,406.962,85.867,406.849,85.84z"/>
<path fill-rule="evenodd" clip-rule="evenodd" fill="#CCE2E0" d="M742.621,179.448c-2.883,1.707-5.739,3.441-8.685,5.083
	c-0.344,0.19-1.187-0.053-1.771-0.234c-2.397-0.748-9.024-7.125-8.919-9.015c0.094-1.666,0.707-3.439,1.861-4.6
	c2.762-2.772,7.595-2.38,11.855-2.782c0.479-0.046,1.517,0.335,1.685,0.645c1.239,2.282,4.68,4.123,3.568,6.917
	c-0.391,0.978-0.138,2.226-0.18,3.352C742.233,179.025,742.428,179.238,742.621,179.448z"/>
<path fill-rule="evenodd" clip-rule="evenodd" fill="#DFEFEF" d="M828.675,225.989c2.434-1.341,4.996-3.026,7.634-4.12
	c2.38-0.99,4.086,0.053,4.63,2.129c0.426,1.621,0.523,3.479,0.403,5.314c-0.299,4.536-6.133,9.086-10.887,8.6
	c-3.929-0.402-5.87-2.434-4.974-5.98C825.92,230.191,827.33,228.424,828.675,225.989z"/>
<path fill-rule="evenodd" clip-rule="evenodd" fill="#CCE2E0" d="M509.43,234.125c0.31-0.209,0.966-1.014,1.954-1.265
	c5.456-1.392,13.88,2.763,15.684,7.931c0.438,1.248-0.388,3.171-1.541,3.8c-3.531,1.923-8.045,0.785-12.203-0.936
	C510.004,242.282,507.947,237.217,509.43,234.125z"/>
<path fill-rule="evenodd" clip-rule="evenodd" fill="#CCE2E0" d="M957.259,123.566c-1.197,2.496-5.034,3.508-8.046,2.125
	c-3.393-1.561-5.802-6.82-4.424-9.67c0.755-1.562,5.234-2.207,7.649-1.102C957.532,117.256,959.015,119.912,957.259,123.566z"/>
<path fill-rule="evenodd" clip-rule="evenodd" fill="#D5E0E0" d="M923.918,114.768c-1.475,0.963-2.902,1.969-4.448,2.852
	c-0.37,0.211-1.164,0.164-1.699-0.018c-4.949-1.678-8.345-8.066-5.149-10.422c1.739-1.279,4.947-1.527,7.679-1.473
	c0.857,0.018,2.811,2.498,3.368,3.934C924.285,111.225,923.875,112.9,923.918,114.768z"/>
<path fill-rule="evenodd" clip-rule="evenodd" fill="#D5E0E0" d="M859.642,178.348c-2.343,2.523-4.95,3.92-7.829,3.852
	c-1.924-0.044-3.003-1.084-1.549-3.234c1.718-2.537,3.725-5.003,5.889-7.205c1.411-1.436,3.847-2.623,4.579-0.834
	c0.663,1.623,0.048,4.09-0.116,6.207C860.59,177.473,859.98,177.939,859.642,178.348z"/>
<path fill-rule="evenodd" clip-rule="evenodd" fill="#D5E0E0" d="M879.305,223.736c1.565-1.284,3.226-3.275,5.005-1.578
	c1.234,1.174,1.302,4.543,0.148,5.77c-1.998,2.125-4.388,2.454-6.109,0.838C877.032,227.531,877.336,225.769,879.305,223.736z"/>
<path fill-rule="evenodd" clip-rule="evenodd" fill="#CCE2E0" d="M719.893,89.388c1.132-2.558,3.132-2.413,5.361-1.449
	c0.572,0.247,1.28,0.959,1.339,1.402c0.048,0.355-0.751,0.922-1.249,0.878C723.545,90.061,721.713,89.683,719.893,89.388z"/>
<path fill-rule="evenodd" clip-rule="evenodd" fill="#DFEFEF" d="M885.657,206.865c0.355-1.155,0.389-2.059,0.792-2.385
	c0.575-0.469,1.42-0.512,2.15-0.737c-0.053,0.753,0.164,1.698-0.238,2.2C887.97,206.432,886.943,206.464,885.657,206.865z"/>
<path fill-rule="evenodd" clip-rule="evenodd" fill="#DFEFEF" d="M742.72,50.313c0.516,1.566,1.55,3.262,1.416,4.667
	c-0.174,1.81-2.788,1.918-4.188,0.974c-1.295-0.873-2.373-3.049-2.177-4.254c0.159-0.953,2.396-1.303,3.71-1.92
	C741.893,49.957,742.307,50.135,742.72,50.313z"/>
<path fill-rule="evenodd" clip-rule="evenodd" fill="#CCE2E0" d="M716.216,52.844c2.822-1.164,2.117-5.94,6.558-4.111
	c2.126,0.876,3.66,4.401,4.625,6.81c0.348,0.865-1.471,2.699-2.806,2.832C720.492,58.784,719.004,55.347,716.216,52.844z"/>
<path fill-rule="evenodd" clip-rule="evenodd" fill="#DFEFEF" d="M549.468,82.146c-2.731,2.168-5.399,4.425-8.236,6.446
	c-0.831,0.592-2.245,0.91-3.213,0.659c-2.521-0.653-4.983-1.597-7.394-2.604c-1.949-0.815-2.676-2.632-3.175-4.569
	c-0.621-2.416-1.31-4.815-2.009-7.21c-0.811-2.777,0.826-7.677,3.412-9.089c3.602-1.967,7.303-3.786,11.094-5.35
	c1.139-0.469,2.877-0.221,4.061,0.315c2.124,0.965,4.233,2.169,5.988,3.689c2.42,2.093,2.969,5.081,2.757,8.191
	c-0.029,0.417-0.347,0.867-0.255,1.232C553.372,77.336,551.785,79.805,549.468,82.146z"/>
<path fill-rule="evenodd" clip-rule="evenodd" fill="#D5E0E0" d="M527.113,167.292c-2.715,1.94-5.195,4.459-8.201,5.688
	c-4.65,1.903-12.279,1.044-13.891-6.027c-0.439-1.934-1.14-3.819-1.849-5.679c-1.041-2.729,0.61-8.03,3.111-9.569
	c1.397-0.86,2.845-1.641,4.261-2.469c3.078-1.8,6.192-2.322,9.599-0.762c1.055,0.483,2.451,0.474,3.651,0.336
	c2.279-0.259,3.71,0.485,4.436,2.695c0.512,1.558,0.927,3.15,1.485,4.691C531.26,160.463,530.968,164.229,527.113,167.292z"/>
<path fill-rule="evenodd" clip-rule="evenodd" fill="#DFEFEF" d="M963.484,146.758c3.268-0.309,6.267-0.697,9.279-0.832
	c1.776-0.08,5.082,2.945,5.562,4.701c0.223,0.82,0.367,1.768,0.876,2.383c1.606,1.939,0.093,3.197-0.783,4.65
	c-0.396,0.654-0.856,1.377-0.927,2.104c-0.151,1.57-1.97,3.943-3.402,3.674c-3.328-0.627-6.417,0.475-9.604,0.879
	c-2.846,0.363-4.755-0.947-5.519-3.645c-0.444-1.57-0.926-3.131-1.379-4.699c-0.075-0.266-0.222-0.662-0.102-0.811
	c1.794-2.225,0.331-3.861-0.665-5.855c-0.651-1.301-0.493-3.24-0.132-4.76c0.464-1.938,4.235-1.732,5.724,0.275
	C962.952,145.547,963.3,146.414,963.484,146.758z"/>
<path fill-rule="evenodd" clip-rule="evenodd" fill="#DFEFEF" d="M641.342,220.579c1.476,2.51,2.839,4.527,3.881,6.698
	c0.772,1.612-1.589,6.645-3.372,7.914c-3.169,2.259-6.738,3.391-10.562,3.711c-2.595,0.218-5.039-0.289-6.098-3.507
	c-0.683-2.069-2.309-4.032-1.395-6.452c0.223-0.588,0.674-1.085,0.98-1.646c0.454-0.84,1.081-1.656,1.266-2.56
	c0.548-2.686,2.246-4.093,4.785-4.54c2.103-0.371,4.245-0.751,6.362-0.715C638.661,219.509,640.118,220.233,641.342,220.579z"/>
<path fill-rule="evenodd" clip-rule="evenodd" fill="#CCE2E0" d="M592.574,108.849c1.09,2.897,2.229,5.921,3.363,8.947
	c0.124,0.333,0.248,0.676,0.298,1.024c0.237,1.682-3.104,7.515-4.618,8.228c-2.086,0.979-4.132,2.039-6.205,3.045
	c-0.366,0.176-0.784,0.245-1.027,0.318c-1.405-3.065-2.702-6.045-4.136-8.956c-0.761-1.543-1.85-2.924-2.598-4.473
	c-0.241-0.502,0.03-1.337,0.243-1.96c0.469-1.365,0.999-2.716,1.598-4.03c0.898-1.969,2.811-2.296,4.613-2.361
	C586.793,108.533,589.492,108.753,592.574,108.849z"/>
<path fill-rule="evenodd" clip-rule="evenodd" fill="#DFEFEF" d="M645.794,157.397c-3.29,2.973-8.534,3.473-11.878,0.661
	c-1.36-1.143-2.114-3.179-2.769-4.949c-1.158-3.135-1.545-6.351,1.397-8.845c2.979-2.525,6.136-4.402,10.338-2.69
	c3.36,1.367,5.113,3.833,4.95,7.56c-0.05,1.141-0.022,2.287,0.018,3.428C647.943,155.265,647.83,155.559,645.794,157.397z"/>
<path fill-rule="evenodd" clip-rule="evenodd" fill="#D5E0E0" d="M888.979,86.262c-2.376-4.379-4.556-8.346-6.665-12.352
	c-0.243-0.461-0.301-1.225-0.088-1.684c0.674-1.455,1.675-2.768,2.26-4.25c0.865-2.184,2.492-1.895,4.198-1.615
	c2.047,0.334,4.082,0.844,6.142,0.965c1.558,0.09,2.611,0.227,3.125,2.033c0.635,2.229,1.702,4.336,2.563,6.502
	c0.155,0.393,0.296,0.816,0.319,1.23c0.063,1.082-2.792,5.451-3.834,5.883C894.251,84.115,891.493,85.234,888.979,86.262z"/>
<path fill-rule="evenodd" clip-rule="evenodd" fill="#DFEFEF" d="M848.656,89.048c2.58-1.996,5.575-1.254,8.457-1.232
	c0.254,0.001,0.507,0.337,0.763,0.34c4.984,0.044,4.918,4.462,6.254,7.496c0.324,0.738-1.116,2.092-1.255,3.222
	c-0.501,4.079-3.814,4.313-6.702,5.168c-0.681,0.2-1.409,0.48-2.082,0.407c-0.668-0.073-1.593-0.368-1.886-0.87
	c-1.459-2.499-2.745-5.1-4.097-7.662C847.512,94.781,847.919,89.676,848.656,89.048z"/>
<path fill-rule="evenodd" clip-rule="evenodd" fill="#CCE2E0" d="M480.04,96.64c1.921-2.47,4.927-2.398,7.588-1.804
	c1.475,0.331,2.842,2.136,3.779,3.586c0.857,1.323,1.107,3.053,1.541,4.626c0.134,0.484,0.077,1.063-0.041,1.564
	c-0.204,0.864-0.359,1.812-0.836,2.522c-0.654,0.973-1.443,2.194-2.436,2.526c-1.899,0.637-3.99,0.683-5.989,1.045
	c-2.046,0.371-3.292-0.678-4.104-2.325c-0.846-1.716-1.547-3.505-2.267-5.28C476.567,101.354,477.677,98.719,480.04,96.64z"/>
<path fill-rule="evenodd" clip-rule="evenodd" fill="#D5E0E0" d="M515.961,88.53c1.807,1.46,2.228,3.583,1.439,5.832
	c-0.691,1.976-0.42,4.696-3.09,5.421c-1.188,0.321-2.775,0.374-3.806-0.168c-2.187-1.15-4.886-1.663-6.014-4.434
	c-0.798-1.957-0.854-3.589,0.419-5.379C507.163,86.636,513.283,85.762,515.961,88.53z"/>
<path fill-rule="evenodd" clip-rule="evenodd" fill="#D5E0E0" d="M575.814,122.575c2.177,2.217,2.704,5.545,1.549,6.92
	c-2.231,2.662-5.728,3.423-7.986,1.737c-0.112-0.084-0.283-0.17-0.305-0.278c-0.42-2.2-1.081-4.4-1.114-6.607
	c-0.017-1.053,1.001-2.308,1.876-3.119c0.551-0.511,1.82-0.706,2.562-0.45C573.828,121.274,575.115,122.19,575.814,122.575z"/>
<path fill-rule="evenodd" clip-rule="evenodd" fill="#CCE2E0" d="M657.398,160.111c-0.805-1.152-1.799-2.224-2.331-3.49
	c-0.243-0.576,0.22-1.717,0.721-2.285c1.136-1.292,4.573-0.824,6.012,0.665c1.375,1.423,1.553,3.632,0.387,4.781
	C660.657,161.285,659.039,161.33,657.398,160.111z"/>
<path fill-rule="evenodd" clip-rule="evenodd" fill="#D5E0E0" d="M517.012,185.133c-0.459-2.403-4.283-3.695-2.16-6.11
	c1.018-1.157,4.001-0.912,6.025-0.687c0.729,0.08,1.866,2.034,1.759,3.017C522.305,184.366,519.398,184.121,517.012,185.133z"/>
<path fill-rule="evenodd" clip-rule="evenodd" fill="#DFEFEF" d="M502.563,116.774c1.3,0.225,2.78,0.135,3.853,0.754
	c1.379,0.798,1.05,2.661,0.095,3.287c-0.882,0.577-2.746,0.518-3.65-0.07c-0.716-0.465-0.634-2.158-0.907-3.305
	C502.157,117.218,502.36,116.996,502.563,116.774z"/>
<path fill-rule="evenodd" clip-rule="evenodd" fill="#CCE2E0" d="M667.578,222.147c-1.812-1.745-1.382-3.087-0.281-4.282
	c0.282-0.307,0.948-0.536,1.302-0.411c0.283,0.099,0.599,0.868,0.486,1.199C668.678,219.851,668.094,220.986,667.578,222.147z"/>
<path fill-rule="evenodd" clip-rule="evenodd" fill="#CCE2E0" d="M867.254,93.934c1.299,0.225,2.779,0.137,3.852,0.756
	c1.379,0.796,1.051,2.659,0.096,3.285c-0.883,0.578-2.745,0.518-3.65-0.069c-0.716-0.466-0.635-2.158-0.907-3.306
	C866.848,94.378,867.05,94.155,867.254,93.934z"/>
<path fill-rule="evenodd" clip-rule="evenodd" fill="#CCE2E0" d="M638.585,211.071c-0.458-2.403-4.283-3.695-2.159-6.109
	c1.018-1.157,4-0.912,6.025-0.687c0.727,0.08,1.865,2.033,1.758,3.016C643.879,210.305,640.972,210.06,638.585,211.071z"/>
<path fill-rule="evenodd" clip-rule="evenodd" fill="#DFEFEF" d="M520.803,73.668c-1.128,0.771-2.27,2.079-3.816,0.502
	c-1.07-1.094-1.41-3.725-0.602-4.511c1.398-1.363,3.254-1.271,4.748,0.233C522.275,71.045,522.184,72.372,520.803,73.668z"/>
</svg>
